<svg xmlns="http://www.w3.org/2000/svg" width="400" height="400" viewBox="0 0 400 400">
  <defs>
    <style>
      .d { fill: none; stroke: #f59e0b; stroke-width: 1.2; stroke-linecap: round; stroke-linejoin: round; opacity: .17; }
    </style>
  </defs>
  <g class="d">
    <g transform="translate(34 38) rotate(-10)">
      <path d="M4 4h14v16H4zM8 2v4M14 2v4"/>
      <path d="M7 10h8M7 14h5"/>
    </g>
    <g transform="translate(175 50) rotate(12)">
      <path d="M6 2l2 4 4 1-3 3 1 4-4-2-4 2 1-4-3-3 4-1-2-4z"/>
    </g>
    <g transform="translate(305 32) rotate(6)">
      <circle cx="10" cy="10" r="8"/>
      <path d="M6 10h8M10 6v8"/>
    </g>
    <g transform="translate(82 168) rotate(-8)">
      <path d="M2 6h18v12H2zM6 6V4h10v2"/>
      <circle cx="7" cy="12" r="1.5"/>
      <circle cx="12" cy="12" r="1.5"/>
    </g>
    <g transform="translate(248 152) rotate(10)">
      <path d="M4 8c0-3 3-5 7-5s7 2 7 5v8H4V8z"/>
      <path d="M8 4v4M16 4v4"/>
    </g>
    <g transform="translate(338 218) rotate(-12)">
      <path d="M4 4h16l-2 14H6L4 4z"/>
      <path d="M8 8h8"/>
    </g>
    <g transform="translate(108 298) rotate(-14)">
      <rect x="2" y="4" width="18" height="14" rx="2"/>
      <path d="M2 9h18"/>
    </g>
    <g transform="translate(268 292) rotate(8)">
      <circle cx="6" cy="6" r="4"/>
      <path d="M0 16c0-3 2.5-5 6-5"/>
      <circle cx="16" cy="7" r="3"/>
      <path d="M12 16c0-2.5 2-4 5-4"/>
    </g>
    <g transform="translate(42 228) rotate(4)">
      <path d="M11 2L2 20h18L11 2z"/>
    </g>
    <g transform="translate(188 248) rotate(-5)">
      <path d="M0 8h20M10 0v16M4 4l12 12"/>
    </g>
  </g>
</svg>
